<svg xmlns="http://www.w3.org/2000/svg" xmlns:xlink="http://www.w3.org/1999/xlink" width="112" height="16" viewBox="0 0 112 16">
  <defs>
    <clipPath id="clip-path">
      <rect id="矩形_1247" data-name="矩形 1247" width="112" height="16" transform="translate(507 736)" fill="#fff"/>
    </clipPath>
  </defs>
  <g id="蒙版组_240" data-name="蒙版组 240" transform="translate(-507 -736)" clip-path="url(#clip-path)">
    <g id="组_2072" data-name="组 2072" transform="translate(489.371 653.745)">
      <path id="Paraluni" d="M4.935-10.757v3.535H1.768V-17.342H9.2a14.774,14.774,0,0,1,2.9.2,4.022,4.022,0,0,1,2.32,1.381,2.706,2.706,0,0,1,.625,1.715,2.808,2.808,0,0,1-.413,1.464,3.254,3.254,0,0,1-1.149,1.13,4.558,4.558,0,0,1-1.416.546,10.757,10.757,0,0,1-2.041.152Zm0-1.806h4.3a3.854,3.854,0,0,0,1.628-.243,1.377,1.377,0,0,0,.691-1.32,1.259,1.259,0,0,0-1.048-1.3,4.9,4.9,0,0,0-1.2-.106H4.935Zm20.432.85a1.118,1.118,0,0,0-.457-1.047,4.011,4.011,0,0,0-1.818-.273H18.051v-1.578h5.041q1.361,0,1.874.038a8.673,8.673,0,0,1,1.048.144,2.739,2.739,0,0,1,2.342,3.05v4.157h-6.29q-1.7,0-2.342-.068a3.883,3.883,0,0,1-1.138-.281A1.956,1.956,0,0,1,17.27-9.406a1.933,1.933,0,0,1,.524-1.328,2.666,2.666,0,0,1,1.394-.8,12.129,12.129,0,0,1,2.521-.182Zm0,1.578H21.419a1.567,1.567,0,0,0-.814.182.56.56,0,0,0-.3.5.518.518,0,0,0,.368.5,3.658,3.658,0,0,0,1.26.152h3.435Zm6.669-4.476h4.417a13.164,13.164,0,0,1,2.108.129,3.463,3.463,0,0,1,1.238.432,1.7,1.7,0,0,1,.691.759,3.344,3.344,0,0,1,.2,1.3v.713H37.814v-.395a1.246,1.246,0,0,0-.4-1.077,2.85,2.85,0,0,0-1.539-.288h-.848v5.811H32.037Zm18.826,2.9a1.118,1.118,0,0,0-.457-1.047,4.011,4.011,0,0,0-1.818-.273H43.547v-1.578h5.041q1.361,0,1.874.038a8.674,8.674,0,0,1,1.048.144,2.739,2.739,0,0,1,2.342,3.05v4.157h-6.29q-1.7,0-2.342-.068a3.883,3.883,0,0,1-1.138-.281,1.956,1.956,0,0,1-1.316-1.836,1.933,1.933,0,0,1,.524-1.328,2.666,2.666,0,0,1,1.394-.8,12.129,12.129,0,0,1,2.521-.182Zm0,1.578H46.915a1.567,1.567,0,0,0-.814.182.56.56,0,0,0-.3.5.518.518,0,0,0,.368.5,3.658,3.658,0,0,0,1.26.152h3.435Zm9.658,2.913H57.532V-17.342h2.989ZM71.451-8.8v-5.811H74.44v7.389H68.551a11.383,11.383,0,0,1-1.963-.129,3.512,3.512,0,0,1-1.227-.463,2.45,2.45,0,0,1-1.138-2.261v-4.537h2.967v4.749a.908.908,0,0,0,.39.781,1.782,1.782,0,0,0,1.06.281Zm6.8-5.811h5.755a11.352,11.352,0,0,1,1.974.129,3.748,3.748,0,0,1,1.238.463,2.457,2.457,0,0,1,1.138,2.246v4.552H85.37V-12a.885.885,0,0,0-.357-.789,2.174,2.174,0,0,0-1.182-.243H81.243v5.811H78.254Zm13.785,0h2.989v7.389H92.039Zm0-.759v-1.973h2.989v1.973Z" transform="translate(33.918 102.5)" fill="#fff"/>
      <g id="组_2071" data-name="组 2071" transform="translate(18.313 82.584)">
        <path id="路径_39" data-name="路径 39" d="M18.9,10.883a.306.306,0,0,1-.306.306H6.021a.307.307,0,0,1-.307-.306V9.725a.307.307,0,0,1,.307-.306H11.5A4.472,4.472,0,0,0,13.97,8.382c.794-.555,4.371-4.1,4.371-4.1a.306.306,0,0,1,.257.472L15.651,9.419H18.6a.306.306,0,0,1,.306.306Z" transform="translate(-5.714 -4.286)" fill="#fff" fill-rule="evenodd"/>
        <path id="路径_40" data-name="路径 40" d="M5.714,16.735a.306.306,0,0,1,.306-.306H18.6a.306.306,0,0,1,.307.306v1.157a.307.307,0,0,1-.307.306H13.124a4.472,4.472,0,0,0-2.475,1.037c-.794.555-4.371,4.1-4.371,4.1a.306.306,0,0,1-.257-.472L8.968,18.2H6.021a.306.306,0,0,1-.306-.306Z" transform="translate(-5.714 -7.991)" fill="#fff" fill-rule="evenodd"/>
      </g>
    </g>
  </g>
</svg>
